HIERARCHY
ROOT root
{
	OFFSET	0	13.1	24.9
	CHANNELS 6  Xposition Yposition Zposition Xrotation Yrotation Zrotation
	JOINT spine_1
	{
		OFFSET	0	9.99999	0
		CHANNELS 3  Xrotation Yrotation Zrotation
		JOINT spine_2
		{
			OFFSET	0	112	-10
			CHANNELS 3  Xrotation Yrotation Zrotation
			JOINT spine_3
			{
				OFFSET	0	206.5	19.3
				CHANNELS 3  Xrotation Yrotation Zrotation
				JOINT spine_4
				{
					OFFSET	0	110.4	14.6
					CHANNELS 3  Xrotation Yrotation Zrotation
					JOINT neck_1
					{
						OFFSET	0	71.8	-50.3
						CHANNELS 3  Xrotation Yrotation Zrotation
						JOINT neck_2
						{
							OFFSET	0	86.2	-25.8
							CHANNELS 3  Xrotation Yrotation Zrotation
							JOINT head_ee
							{
								OFFSET	0	179.8	-8.7
								CHANNELS 3  Xrotation Yrotation Zrotation
								End Site
								{
									OFFSET	1	0	0
								}
							}
						}
					}
					JOINT left_clavicle
					{
						OFFSET	-43.2	22.4	-70.8
						CHANNELS 3  Xrotation Yrotation Zrotation
						JOINT left_shoulder
						{
							OFFSET	-93.9	-5.79999	48.7
							CHANNELS 3  Xrotation Yrotation Zrotation
							JOINT left_elbow
							{
								OFFSET	-291.4	-30.8	15.2
								CHANNELS 3  Xrotation Yrotation Zrotation
								JOINT left_lowarm_twist
								{
									OFFSET	-110.7	-3.89999	13.6
									CHANNELS 3  Xrotation Yrotation Zrotation
									JOINT left_hand
									{
										OFFSET	-110.7	-3.89999	13.6
										CHANNELS 3  Xrotation Yrotation Zrotation
										JOINT left_ee
										{
											OFFSET	-80.8	-5.10001	12.1
											CHANNELS 3  Xrotation Yrotation Zrotation
											End Site
											{
												OFFSET	1	0	0
											}
										}
									}
								}
							}
						}
					}
					JOINT right_clavicle
					{
						OFFSET	43.2	22.4	-70.8
						CHANNELS 3  Xrotation Yrotation Zrotation
						JOINT right_shoulder
						{
							OFFSET	93.9	-5.79999	48.7
							CHANNELS 3  Xrotation Yrotation Zrotation
							JOINT right_elbow
							{
								OFFSET	291.4	-30.8	15.2
								CHANNELS 3  Xrotation Yrotation Zrotation
								JOINT right_lowarm_twist
								{
									OFFSET	110.7	-3.89999	13.6
									CHANNELS 3  Xrotation Yrotation Zrotation
									JOINT right_hand
									{
										OFFSET	110.7	-3.89999	13.6
										CHANNELS 3  Xrotation Yrotation Zrotation
										JOINT right_ee
										{
											OFFSET	80.8	-5.10001	12.1
											CHANNELS 3  Xrotation Yrotation Zrotation
											End Site
											{
												OFFSET	1	0	0
											}
										}
									}
								}
							}
						}
					}
				}
			}
		}
	}
	JOINT left_hip
	{
		OFFSET	-82.8	-127.5	0.300001
		CHANNELS 3  Xrotation Yrotation Zrotation
		JOINT left_knee
		{
			OFFSET	-28.2	-396.7	2.2
			CHANNELS 3  Xrotation Yrotation Zrotation
			JOINT left_ankle
			{
				OFFSET	-11.7	-411.3	35.4
				CHANNELS 3  Xrotation Yrotation Zrotation
				JOINT left_toes
				{
					OFFSET	0	-60	-88.6
					CHANNELS 3  Xrotation Yrotation Zrotation
					JOINT left_foot_ee
					{
						OFFSET	-22.5	-16.5	-42.2
						CHANNELS 3  Xrotation Yrotation Zrotation
						End Site
						{
							OFFSET	1	0	0
						}
					}
				}
			}
		}
	}
	JOINT right_hip
	{
		OFFSET	82.8	-127.5	0.300001
		CHANNELS 3  Xrotation Yrotation Zrotation
		JOINT right_knee
		{
			OFFSET	28.2	-396.7	2.2
			CHANNELS 3  Xrotation Yrotation Zrotation
			JOINT right_ankle
			{
				OFFSET	11.7	-411.3	35.4
				CHANNELS 3  Xrotation Yrotation Zrotation
				JOINT right_toes
				{
					OFFSET	0	-60	-88.6
					CHANNELS 3  Xrotation Yrotation Zrotation
					JOINT right_foot_ee
					{
						OFFSET	22.5	-16.5	-42.2
						CHANNELS 3  Xrotation Yrotation Zrotation
						End Site
						{
							OFFSET	1	0	0
						}
					}
				}
			}
		}
	}
}
MOTION
Frames: 16
Frame Time: 0.02
3177.02 653.055 -1669.29 -64.0467108179 82.8323097628 69.7206816805 2.12716 0.193337 -0.479688 2.12726 0.223469 -0.466413 2.1254 0.301127 -0.42048 2.12523 0.230941 -0.462759 -17.289 5.75564 1.25924 -17.4045 10.361 3.3207 -0.0 0.0 -0.0 2.76396 24.2245 6.52739 -30.6723 -12.469 64.3901 0.246116 -6.95129 0.0149481 -34.9622 -2.43202 3.67587 3.55591 22.7293 31.4921 -0.0 0.0 -0.0 11.3333 4.97577 -22.6987 16.034 13.5212 -71.8313 1.45877 35.8508 -0.471906 -80.1575 7.84182 -5.27759 -6.11113 -23.6664 26.7304 0.0 0.0 0.0 34.0286 -4.81163 -12.5066 2.07415 -0.0909532 -0.305261 -6.59445 -17.2708 1.0873 -18.4818 0.0 0.0 -0.0 0.0 -0.0 -18.8818 -17.9156 -13.0833 -2.11577 -0.0813147 -0.314499 39.2656 3.11689 4.84246 -9.55622 0.0 0.0 0.0 0.0 0.0 
3157.15029904 654.232 -1667.51081937 -54.7172151444 82.2383396955 60.6059290274 2.20414 0.119911 -0.517006 2.20428 0.152566 -0.508328 2.20289 0.237944 -0.474402 2.20262 0.160036 -0.506026 -16.9784 5.80034 0.87098 -17.0996 10.6514 2.94527 -0.0 0.0 -0.0 2.87478 24.0752 6.67426 -30.2911 -11.9766 65.3141 0.27227 -7.68157 0.0182788 -34.7187 -2.4078 3.65613 3.675 23.3506 32.4491 -0.0 0.0 -0.0 11.328 5.01374 -22.6883 15.03 13.1356 -72.2775 1.45837 35.8434 -0.471672 -79.7295 7.78751 -5.2833 -5.85188 -23.6151 25.0787 0.0 0.0 0.0 32.6207 -4.65469 -13.2189 0.865119 -0.0365899 -0.127713 -5.64079 -17.2099 0.927849 -18.0039 0.0 0.0 -0.0 0.0 -0.0 -19.3346 -18.3197 -12.4608 -2.29857 -0.0877935 -0.341805 39.3267 2.47969 4.84043 -8.91423 0.0 0.0 0.0 0.0 0.0 
3131.74169436 655.908 -1665.50086578 -49.2474477805 82.1558086306 55.8324068174 2.21646 -0.00947309 -0.591228 2.21666 0.0281668 -0.590633 2.21634 0.129464 -0.576958 2.21587 0.036721 -0.590163 -16.4977 5.87031 0.537919 -16.6212 10.9577 2.61237 -0.0 0.0 -0.0 2.74577 23.3991 6.47951 -28.8979 -11.746 65.2388 0.339399 -9.54399 0.0283331 -33.1288 -2.2518 3.52478 4.18542 22.0499 35.9443 -0.0 0.0 -0.0 11.1897 5.07708 -22.3887 12.9847 12.954 -71.8796 1.41707 35.0659 -0.447719 -78.999 7.6947 -5.2921 -5.24552 -20.929 23.2211 0.0 0.0 0.0 30.8752 -4.03674 -14.1922 -0.767887 0.0308561 0.113801 -0.984432 -18.303 0.16171 -16.4522 0.0 0.0 -0.0 0.0 -0.0 -19.6211 -18.4543 -11.6392 -7.68049 -0.239199 -1.15357 38.5072 2.13482 4.76436 -6.92195 0.0 0.0 0.0 0.0 0.0 
3107.77168049 655.439 -1663.33574569 -40.527762883 81.7605875133 47.4496442119 2.18813 -0.0634034 -0.670687 2.18838 -0.0205983 -0.673362 2.1886 0.0959959 -0.666803 2.18798 -0.0105154 -0.673595 -16.1564 5.09679 0.334427 -16.2472 9.58048 2.11044 -0.0 0.0 -0.0 3.01763 23.5686 6.8587 -28.1357 -11.8167 65.1797 0.377184 -10.5837 0.0349362 -32.5804 -2.19884 3.47848 4.40722 22.2896 37.6768 -0.0 0.0 -0.0 11.1281 5.14519 -22.2568 11.0666 12.9321 -72.1916 1.3914 34.5749 -0.433056 -78.0975 7.58002 -5.30131 -5.11961 -21.9719 21.6421 0.0 0.0 0.0 29.7693 -3.07807 -14.7649 -3.04084 0.113204 0.452888 2.23043 -17.5793 -0.360821 -15.1448 0.0 0.0 -0.0 0.0 -0.0 -19.8069 -18.7768 -10.8138 -9.99993 -0.28081 -1.50704 38.9906 1.35653 4.79946 -5.51169 0.0 0.0 0.0 0.0 0.0 
3061.41230955 658.353 -1654.83843574 -30.1093362818 81.0335209963 37.6355860713 2.01705 -0.121479 -0.84589 2.01745 -0.0674086 -0.851905 2.01844 0.0832468 -0.850504 2.01743 -0.052114 -0.852977 -14.0336 5.02604 1.04859 -14.0908 8.94958 2.58215 -0.0 0.0 -0.0 3.83566 23.7306 7.98816 -23.9316 -11.7664 62.8336 0.503225 -13.9978 0.0617787 -31.0618 -2.05456 3.34767 4.86956 21.9958 41.321 -0.0 0.0 -0.0 10.617 5.47634 -21.1567 5.9103 13.4195 -70.1009 1.39918 34.7245 -0.437485 -76.0014 7.31276 -5.31569 -4.68331 -20.9093 19.6243 0.0 0.0 0.0 27.7539 -0.988355 -14.9917 -8.32165 0.252133 1.25111 12.6114 -17.4878 -1.96214 -13.3265 0.0 0.0 -0.0 0.0 -0.0 -20.683 -18.8964 -9.31993 -14.6743 -0.321051 -2.22293 37.0546 0.1014 4.61412 -4.70055 0.0 0.0 0.0 0.0 0.0 
3035.41460463 659.649 -1653.50280262 -25.4866300818 80.4063650586 32.9021357154 1.96326 -0.264902 -0.975338 1.96377 -0.202305 -0.990215 1.96729 -0.0243787 -1.01037 1.96591 -0.183635 -0.993847 -13.1042 4.53332 0.492046 -13.1485 8.3182 1.82953 -0.0 0.0 -0.0 4.11037 23.9122 8.36559 -22.8542 -11.8361 62.2621 0.539089 -14.952 0.0707434 -31.1191 -2.05993 3.35267 5.01859 22.1223 42.583 -0.0 0.0 -0.0 10.764 3.74835 -21.4235 4.23059 12.6309 -69.0827 1.33076 33.3921 -0.399164 -76.1862 7.33634 -5.31482 -4.60555 -21.35 18.8333 0.0 0.0 0.0 24.8458 -0.461502 -14.2887 -7.6567 0.238699 1.14996 16.8049 -18.2027 -2.57939 -12.7789 0.0 0.0 -0.0 0.0 -0.0 -18.799 -19.0648 -8.52143 -16.239 -0.321461 -2.46298 40.1132 -0.370906 4.88304 -4.14752 0.0 0.0 0.0 0.0 0.0 
3035.22857722 659.649 -1655.27158257 -23.7817369134 79.7561862245 31.1714047463 1.96326 -0.264902 -0.975338 1.96377 -0.202305 -0.990215 1.96729 -0.0243787 -1.01037 1.96591 -0.183635 -0.993847 -13.1042 4.53332 0.492046 -13.1485 8.3182 1.82953 -0.0 0.0 -0.0 4.11037 23.9122 8.36559 -22.8542 -11.8361 62.2621 0.539089 -14.952 0.0707434 -31.1191 -2.05993 3.35267 5.01859 22.1223 42.583 -0.0 0.0 -0.0 10.764 3.74835 -21.4235 4.23059 12.6309 -69.0827 1.33076 33.3921 -0.399164 -76.1862 7.33634 -5.31482 -4.60555 -21.35 18.8333 0.0 0.0 0.0 24.8458 -0.461502 -14.2887 -7.6567 0.238699 1.14996 16.8049 -18.2027 -2.57939 -12.7789 0.0 0.0 -0.0 0.0 -0.0 -18.799 -19.0648 -8.52143 -16.239 -0.321461 -2.46298 40.1132 -0.370906 4.88304 -4.14752 0.0 0.0 0.0 0.0 0.0 
3011.81744756 664.896 -1656.75734393 -20.485540215 78.9251594713 28.1554581679 1.85214 -0.290052 -1.11268 1.8528 -0.218667 -1.12887 1.85716 -0.0138055 -1.14977 1.85537 -0.195205 -1.13317 -12.8584 4.41 0.436279 -12.8988 8.11035 1.72162 -0.0 0.0 -0.0 4.65405 23.6478 9.12371 -21.607 -11.9518 61.4106 0.587178 -16.2183 0.0836642 -31.1488 -2.06273 3.35527 5.1151 22.2799 43.4255 -0.0 0.0 -0.0 10.7341 2.39343 -21.3056 1.33988 11.6094 -68.4931 1.33154 33.4074 -0.39959 -76.1133 7.32704 -5.31517 -4.58644 -21.5863 18.553 0.0 0.0 0.0 23.1649 0.224821 -14.0029 -9.35116 0.270614 1.40801 21.0043 -18.1274 -3.15232 -11.5312 0.0 0.0 -0.0 0.0 -0.0 -18.7671 -19.0286 -8.87739 -17.8237 -0.315194 -2.70603 40.4898 -1.26668 4.90972 -4.35298 0.0 0.0 0.0 0.0 0.0 
2992.87218196 665.4 -1662.8221711 -14.9063159486 78.5440083444 23.2129654089 1.773 -0.486666 -1.20018 1.77371 -0.409315 -1.22871 1.78263 -0.181967 -1.28224 1.78053 -0.382174 -1.23742 -12.5011 4.25644 0.414218 -12.5363 7.82077 1.63042 -0.0 0.0 -0.0 5.22702 22.2966 9.9804 -20.5134 -12.051 60.7653 0.650249 -17.8546 0.102145 -30.9221 -2.04146 3.33544 5.21134 22.354 44.267 -0.0 0.0 -0.0 10.5904 0.903413 -20.93 -0.905973 10.679 -67.975 1.30483 32.8761 -0.38499 -75.4908 7.24756 -5.3177 -4.60407 -22.1 18.313 0.0 0.0 0.0 21.4341 1.10488 -14.3082 -10.1255 0.282655 1.52622 23.9741 -17.8471 -3.52989 -10.8537 0.0 0.0 -0.0 0.0 -0.0 -17.894 -19.0754 -8.86112 -19.659 -0.29954 -2.98718 40.2794 -1.97451 4.88834 -4.37175 0.0 0.0 0.0 0.0 0.0 
2971.00244376 674.531 -1667.99056834 -10.0929078244 76.9862220146 18.6003801872 1.50461 -0.554483 -1.28515 1.5054 -0.471589 -1.31782 1.5165 -0.220827 -1.38212 1.5141 -0.436315 -1.32991 -11.864 4.54988 0.333791 -11.9001 8.4078 1.59265 -0.0 0.0 -0.0 5.77684 22.0179 10.789 -18.6252 -12.5476 60.356 0.712721 -19.4462 0.122125 -31.161 -2.06387 3.35633 5.19416 22.5645 44.1439 -0.0 0.0 -0.0 10.6362 -0.37153 -20.9534 -2.8279 10.2052 -67.4944 1.15802 29.8397 -0.308564 -75.1807 7.20796 -5.31863 -4.6346 -22.4179 18.2845 0.0 0.0 0.0 19.4346 1.89544 -14.5396 -10.7734 0.2915 1.62524 24.591 -17.4817 -3.59719 -10.4716 0.0 0.0 -0.0 0.0 -0.0 -15.5546 -19.3769 -9.13709 -26.8648 -0.151327 -4.08229 41.0211 -2.38754 4.9495 -2.99699 0.0 0.0 0.0 0.0 0.0 
2955.39979224 678.686 -1667.8679901 -7.49963326532 76.1669399762 16.6395905309 1.37474 -0.549726 -1.4585 1.37581 -0.455814 -1.49051 1.388 -0.17004 -1.54934 1.38489 -0.412567 -1.50305 -12.0865 4.64303 -0.314132 -12.1298 9.00789 1.01389 -0.0 0.0 -0.0 5.97839 21.2891 11.1261 -13.3693 -14.2393 61.7536 0.709877 -19.3744 0.121179 -31.0981 -2.05796 3.35084 5.03144 23.4218 42.8568 -0.0 0.0 -0.0 10.4695 -1.21284 -20.5551 -5.36017 10.3645 -66.4461 1.11949 29.0103 -0.289636 -75.6241 7.26458 -5.31723 -5.04288 -22.737 20.6003 0.0 0.0 0.0 17.1388 2.50048 -15.0483 -9.48783 0.272855 1.42886 23.8656 -17.3719 -3.50303 -11.685 0.0 0.0 -0.0 0.0 -0.0 -11.2124 -16.607 -9.20155 -32.9116 0.0784251 -4.98141 41.2429 -8.35181 4.97309 -0.783036 0.0 0.0 0.0 0.0 0.0 
2941.566275 681.923 -1670.92051615 -4.98058516624 74.7410879051 14.2511249103 1.28092 -0.519432 -1.68825 1.28241 -0.410968 -1.71787 1.29516 -0.0807276 -1.76449 1.29099 -0.35834 -1.72961 -14.6368 5.00151 0.667835 -14.7044 9.15653 2.26295 -0.0 0.0 -0.0 6.23248 20.3155 11.5647 -10.0561 -16.8716 62.0071 0.862691 -23.1393 0.176612 -31.4363 -2.08981 3.38028 5.12152 23.8707 43.668 -0.0 0.0 -0.0 10.3319 -1.61411 -20.2464 -5.77935 9.23959 -66.4133 0.908989 24.2411 -0.195215 -74.9741 7.18156 -5.31913 -4.8285 -22.7097 19.2825 0.0 0.0 0.0 14.4562 3.21059 -15.258 -7.10059 0.226562 1.06548 24.9319 -18.2082 -3.66063 -11.0811 0.0 0.0 -0.0 0.0 -0.0 -8.48729 -18.9521 -6.24559 -38.3645 0.366012 -5.76797 40.6542 -6.98909 4.91724 -0.221042 0.0 0.0 0.0 0.0 0.0 
2941.64632692 681.923 -1662.93789646 -5.6897250221 76.6753614115 14.9828078846 1.28092 -0.519432 -1.68825 1.28241 -0.410968 -1.71787 1.29516 -0.0807276 -1.76449 1.29099 -0.35834 -1.72961 -14.6368 5.00151 0.667835 -14.7044 9.15653 2.26295 -0.0 0.0 -0.0 6.23248 20.3155 11.5647 -10.0561 -16.8716 62.0071 0.862691 -23.1393 0.176612 -31.4363 -2.08981 3.38028 5.12152 23.8707 43.668 -0.0 0.0 -0.0 10.3319 -1.61411 -20.2464 -5.77935 9.23959 -66.4133 0.908989 24.2411 -0.195215 -74.9741 7.18156 -5.31913 -4.8285 -22.7097 19.2825 0.0 0.0 0.0 14.4562 3.21059 -15.258 -7.10059 0.226562 1.06548 24.9319 -18.2082 -3.66063 -11.0811 0.0 0.0 -0.0 0.0 -0.0 -8.48729 -18.9521 -6.24559 -38.3645 0.366012 -5.76797 40.6542 -6.98909 4.91724 -0.221042 0.0 0.0 0.0 0.0 0.0 
2932.7181208 685.748 -1657.34915326 -2.18957172417 77.4334648575 11.6798012991 1.1026 -0.343865 -1.89707 1.10457 -0.222475 -1.9151 1.11249 0.147721 -1.92231 1.10737 -0.157668 -1.92152 -14.985 5.06266 1.07771 -15.0518 9.04229 2.69829 -0.0 0.0 -0.0 6.50772 19.5706 12.0323 -6.56594 -18.3046 62.469 0.977218 -25.8305 0.224091 -32.0576 -2.14877 3.43387 5.11702 24.5585 43.697 -0.0 0.0 -0.0 10.2103 -1.09844 -20.0287 -7.04861 8.8561 -65.6483 0.795647 21.5113 -0.151142 -75.173 7.20697 -5.31865 -4.87777 -21.4455 20.483 0.0 0.0 0.0 12.4781 3.39755 -15.0486 -5.85588 0.196428 0.876849 24.1097 -17.9159 -3.54896 -11.8363 0.0 0.0 -0.0 0.0 -0.0 -5.98457 -18.2438 -5.0461 -42.8736 0.659629 -6.3958 40.2182 -9.86699 4.8946 1.03673 -0.0 -0.0 0.0 0.0 0.0 
2900.885348 690.612 -1653.87767492 4.55506737132 77.2736544626 5.39933036551 0.899768 -0.410395 -2.29038 0.902648 -0.26386 -2.31184 0.914165 0.190983 -2.31899 0.906704 -0.177553 -2.32006 -15.2688 5.05148 -0.223414 -15.3547 9.79836 1.49315 -0.0 0.0 -0.0 6.57974 18.8687 12.1907 -1.34647 -20.5946 63.5076 1.09514 -28.479 0.277924 -31.7837 -2.12271 3.41033 4.50403 25.2387 38.8306 -0.0 0.0 -0.0 9.48281 -2.02156 -18.4975 -11.418 7.75221 -63.9583 0.681571 18.6563 -0.111957 -74.909 7.17325 -5.31927 -5.03903 -20.5602 22.1476 0.0 0.0 0.0 8.37022 4.48064 -14.8812 -3.91414 0.141252 0.583977 23.5587 -16.6745 -3.4457 -11.9721 0.0 0.0 -0.0 0.0 -0.0 -0.139269 -17.2169 -5.12538 -48.5549 1.09865 -7.15141 42.08 -15.7242 5.12681 3.93999 -0.0 -0.0 0.0 0.0 0.0 
2892.03984911 688.929 -1652.21663769 5.31355578763 76.4259129478 4.48805856039 0.731884 -0.404095 -2.37938 0.734998 -0.251914 -2.40025 0.746617 0.226957 -2.40274 0.738594 -0.155246 -2.40844 -16.7722 5.9531 1.2611 -16.8895 10.7181 3.34574 -0.0 0.0 -0.0 6.7471 18.4662 12.4799 2.79869 -21.8291 64.4114 1.216 -31.0624 0.337952 -32.3316 -2.17497 3.45731 4.00243 25.0006 35.0625 -0.0 0.0 -0.0 9.83961 -2.41689 -19.1946 -12.8853 6.46998 -61.5538 0.514225 14.2913 -0.0644667 -74.9701 7.18106 -5.31914 -5.43547 -20.8088 24.559 0.0 0.0 0.0 7.09567 4.94125 -14.1562 -3.21198 0.118858 0.478543 25.5787 -16.713 -3.69782 -12.1472 0.0 0.0 -0.0 0.0 -0.0 2.39559 -16.7606 -6.11204 -49.9566 1.21839 -7.33098 41.6459 -18.7364 5.14844 5.80374 -0.0 -0.0 0.0 0.0 0.0 
